# xmcd CD database file
#
# Track frame offsets:
#	150
#	16386
#	34244
#	53433
#	69036
#	79183
#	97171
#	114060
#	132018
#	148975
#	170689
#	189505
#	200208
#	216542
#	231162
#	244685
#	264785
#	282018
#	301589
#	318599
#	334253
#
# Disc length: 4665 seconds
#
# Revision: 0
# Processed by: cddbd v1.5.1PL2 Copyright (c) Steve Scherf et al.
# Submitted via: CDex 1.51
#
DISCID=2b123715
DTITLE=Moby - The Number One
DYEAR=1900
DGENRE=New Age
TTITLE0=Body Rock
TTITLE1=After Life
TTITLE2=Natural Blues
TTITLE3=Mission Impossible
TTITLE4=Fireworks
TTITLE5=Extreme Way
TTITLE6=Run On
TTITLE7=Find My Baby
TTITLE8=Landing
TTITLE9=Flying Over the Detaline
TTITLE10=Spirit
TTITLE11=Look Backin
TTITLE12=Machete
TTITLE13=One of These Mornings
TTITLE14=Rushing
TTITLE15=Soul To Love
TTITLE16=South Side
TTITLE17=The Sun Never Stops Setting
TTITLE18=We Are All Made of Stars
TTITLE19=Honey
TTITLE20=Flower
EXTD=
EXTT0=
EXTT1=
EXTT2=
EXTT3=
EXTT4=
EXTT5=
EXTT6=
EXTT7=
EXTT8=
EXTT9=
EXTT10=
EXTT11=
EXTT12=
EXTT13=
EXTT14=
EXTT15=
EXTT16=
EXTT17=
EXTT18=
EXTT19=
EXTT20=
PLAYORDER=
